<svg width="41" height="41" viewBox="0 0 41 41" fill="none" xmlns="http://www.w3.org/2000/svg">
<path d="M20.082 0.0688477C9.08202 0.0688477 0.0820312 9.08491 0.0820312 20.1893C0.0820312 30.2295 7.40202 38.5628 16.962 40.0688V26.0126H11.882V20.1893H16.962V15.7516C16.962 10.7114 19.942 7.94033 24.522 7.94033C26.702 7.94033 28.982 8.32186 28.982 8.32186V13.2817H26.462C23.982 13.2817 23.202 14.8279 23.202 16.4142V20.1893H28.762L27.862 26.0126H23.202V40.0688C27.9149 39.3215 32.2064 36.9072 35.3018 33.2617C38.3973 29.6162 40.0927 24.9798 40.082 20.1893C40.082 9.08491 31.082 0.0688477 20.082 0.0688477Z" fill="#7C7C7C"/>
</svg>
