<svg width="139" height="50" viewBox="0 0 139 50" fill="none" xmlns="http://www.w3.org/2000/svg">
<g clip-path="url(#clip0_370875_3471)" filter="url(#filter0_d_370875_3471)">
<path d="M44.7062 21.2433C44.0618 21.6132 43.2802 21.9055 42.3614 22.1203C41.4426 22.3351 40.488 22.4425 39.4976 22.4425C38.1612 22.4425 37.0216 22.2814 36.0789 21.9592C35.1482 21.637 34.4442 21.1896 33.9669 20.6168C33.5015 20.044 33.2688 19.3818 33.2688 18.63C33.2688 17.9737 33.4478 17.395 33.8058 16.8938C34.1637 16.3927 34.6589 16.0049 35.2914 15.7304C34.8021 15.4798 34.4263 15.1338 34.1637 14.6923C33.9132 14.2388 33.7879 13.7436 33.7879 13.2067C33.7879 12.5146 34.0027 11.8822 34.4322 11.3094C34.8737 10.7366 35.542 10.2772 36.4369 9.93118C37.3318 9.58513 38.4356 9.41211 39.7482 9.41211C40.5715 9.41211 41.3829 9.48967 42.1824 9.64479C42.9819 9.79992 43.6859 10.0087 44.2945 10.2713L43.328 12.9203C42.2182 12.431 41.0727 12.1864 39.8914 12.1864C39.0442 12.1864 38.4117 12.2998 37.9941 12.5265C37.5765 12.7413 37.3676 13.0456 37.3676 13.4394C37.3676 14.1553 37.8867 14.5133 38.9248 14.5133H42.4688V17.216H38.6922C38.0836 17.216 37.6242 17.3174 37.3139 17.5203C37.0037 17.7112 36.8486 17.9976 36.8486 18.3794C36.8486 18.7851 37.0753 19.1014 37.5287 19.3281C37.9822 19.5548 38.6862 19.6682 39.6408 19.6682C40.3209 19.6682 41.019 19.5787 41.735 19.3997C42.4628 19.2087 43.0953 18.9522 43.6322 18.63L44.7062 21.2433Z" fill="white"/>
<path d="M53.8286 17.1086C54.9383 17.4785 55.4932 18.2422 55.4932 19.3997C55.4932 20.2707 55.1531 20.9569 54.4729 21.458C53.7928 21.9473 52.7904 22.1919 51.4659 22.1919H46.0068V12.4907H51.2153C52.4802 12.4907 53.4587 12.7115 54.1507 13.153C54.8548 13.5945 55.2068 14.215 55.2068 15.0145C55.2068 15.4798 55.0875 15.8915 54.8488 16.2495C54.6102 16.6074 54.2701 16.8938 53.8286 17.1086ZM49.0496 16.3927H50.9111C51.6986 16.3927 52.0924 16.1003 52.0924 15.5156C52.0924 14.9548 51.6986 14.6744 50.9111 14.6744H49.0496V16.3927ZM51.1616 19.9903C51.985 19.9903 52.3967 19.692 52.3967 19.0954C52.3967 18.4988 51.9969 18.2004 51.1974 18.2004H49.0496V19.9903H51.1616Z" fill="white"/>
<path d="M61.7573 18.7374H60.6118V22.1919H57.211V12.4907H60.6118V16.0705H61.8289L64.2095 12.4907H67.8072L64.5496 17.1444L68.0219 22.1919H64.0126L61.7573 18.7374Z" fill="white"/>
<path d="M79.0296 12.4907V22.1919H75.6288V15.1934H73.1767L73.1051 16.679C73.0573 17.9439 72.9321 18.988 72.7292 19.8113C72.5263 20.6347 72.1922 21.279 71.7269 21.7444C71.2615 22.1979 70.6231 22.4246 69.8117 22.4246C69.394 22.4246 68.8451 22.347 68.165 22.1919L68.3082 19.4176C68.523 19.4414 68.6662 19.4534 68.7378 19.4534C69.1077 19.4534 69.3881 19.334 69.579 19.0954C69.7699 18.8567 69.9012 18.5405 69.9728 18.1467C70.0444 17.741 70.0921 17.2041 70.116 16.5359L70.2592 12.4907H79.0296Z" fill="white"/>
<path d="M91.3026 12.4907V22.1919H88.0629V21.1717C87.7049 21.5535 87.2754 21.8458 86.7742 22.0487C86.285 22.2516 85.7599 22.353 85.1991 22.353C83.9343 22.353 82.926 21.9831 82.1742 21.2433C81.4344 20.5034 81.0645 19.3937 81.0645 17.9141V12.4907H84.4653V17.3592C84.4653 18.7553 85.0082 19.4534 86.0941 19.4534C86.631 19.4534 87.0666 19.2684 87.4007 18.8985C87.7348 18.5167 87.9018 17.9379 87.9018 17.1623V12.4907H91.3026Z" fill="white"/>
<path d="M103.913 12.4907V20.4199C103.913 22.2217 103.424 23.5701 102.445 24.465C101.467 25.3719 100.059 25.8254 98.2214 25.8254C97.2668 25.8254 96.3718 25.718 95.5365 25.5032C94.7013 25.2884 93.9913 24.9722 93.4066 24.5545L94.6416 22.174C95.0354 22.4962 95.5306 22.7468 96.1272 22.9257C96.7358 23.1167 97.3324 23.2121 97.9171 23.2121C98.812 23.2121 99.4683 23.0152 99.886 22.6215C100.304 22.2277 100.512 21.643 100.512 20.8674V20.5452C99.8561 21.3089 98.8956 21.6907 97.6307 21.6907C96.7716 21.6907 95.978 21.4998 95.2502 21.118C94.5223 20.7242 93.9435 20.1753 93.514 19.4713C93.0844 18.7553 92.8696 17.932 92.8696 17.0012C92.8696 16.0824 93.0844 15.271 93.514 14.567C93.9435 13.851 94.5223 13.3021 95.2502 12.9203C95.978 12.5265 96.7716 12.3296 97.6307 12.3296C99.0149 12.3296 100.029 12.7771 100.674 13.672V12.4907H103.913ZM98.4361 18.988C99.0447 18.988 99.5459 18.803 99.9397 18.4331C100.345 18.0632 100.548 17.5859 100.548 17.0012C100.548 16.4165 100.351 15.9452 99.9576 15.5872C99.5638 15.2173 99.0566 15.0323 98.4361 15.0323C97.8157 15.0323 97.3026 15.2173 96.8969 15.5872C96.5031 15.9452 96.3062 16.4165 96.3062 17.0012C96.3062 17.5859 96.509 18.0632 96.9148 18.4331C97.3205 18.803 97.8276 18.988 98.4361 18.988Z" fill="white"/>
<path d="M38.7865 26.9327V32.774H37.1509V28.2428H34.9312V32.774H33.304V26.9327H38.7865Z" fill="white"/>
<path d="M42.3634 28.176C42.8585 28.176 43.2896 28.2706 43.6568 28.4598C44.024 28.6489 44.3049 28.9215 44.4996 29.2775C44.6999 29.628 44.8 30.0397 44.8 30.5126C44.8 30.9799 44.7082 31.3915 44.5247 31.7476C44.3411 32.0981 44.0824 32.3707 43.7486 32.5654C43.4148 32.7545 43.0282 32.8491 42.5887 32.8491C42.0713 32.8491 41.6652 32.6905 41.3704 32.3734V34.3929H39.7849V30.5292C39.7849 30.0619 39.8906 29.6503 40.102 29.2942C40.3134 28.9382 40.6138 28.6628 41.0032 28.4681C41.3926 28.2734 41.846 28.176 42.3634 28.176ZM42.2883 31.589C42.572 31.589 42.8001 31.4917 42.9725 31.297C43.1506 31.0967 43.2396 30.8352 43.2396 30.5126C43.2396 30.1899 43.1506 29.9312 42.9725 29.7365C42.8001 29.5362 42.572 29.4361 42.2883 29.4361C42.0046 29.4361 41.7765 29.5362 41.604 29.7365C41.4315 29.9312 41.3453 30.1899 41.3453 30.5126C41.3453 30.8408 41.4288 31.1023 41.5957 31.297C41.7681 31.4917 41.999 31.589 42.2883 31.589Z" fill="white"/>
<path d="M47.7944 32.8491C47.3104 32.8491 46.8737 32.7489 46.4842 32.5487C46.0948 32.3484 45.7888 32.0702 45.5663 31.7142C45.3494 31.3582 45.2409 30.9548 45.2409 30.5042C45.2409 30.0592 45.3494 29.6586 45.5663 29.3026C45.7888 28.9465 46.092 28.6712 46.4759 28.4764C46.8653 28.2762 47.3048 28.176 47.7944 28.176C48.2839 28.176 48.7234 28.2762 49.1128 28.4764C49.5023 28.6712 49.8054 28.9465 50.0224 29.3026C50.2394 29.6531 50.3479 30.0536 50.3479 30.5042C50.3479 30.9548 50.2394 31.3582 50.0224 31.7142C49.8054 32.0702 49.5023 32.3484 49.1128 32.5487C48.7234 32.7489 48.2839 32.8491 47.7944 32.8491ZM47.7944 31.589C48.0725 31.589 48.3006 31.4945 48.4786 31.3053C48.6567 31.1106 48.7457 30.8436 48.7457 30.5042C48.7457 30.1704 48.6567 29.909 48.4786 29.7198C48.3006 29.5307 48.0725 29.4361 47.7944 29.4361C47.5162 29.4361 47.2881 29.5307 47.1101 29.7198C46.9321 29.909 46.8431 30.1704 46.8431 30.5042C46.8431 30.8436 46.9321 31.1106 47.1101 31.3053C47.2881 31.4945 47.5162 31.589 47.7944 31.589Z" fill="white"/>
<path d="M53.4864 31.6391C53.7034 31.6391 53.8897 31.6085 54.0455 31.5473C54.2068 31.4861 54.3681 31.386 54.5295 31.2469L55.3556 32.1147C54.9272 32.6043 54.2875 32.8491 53.4363 32.8491C52.9078 32.8491 52.4433 32.7489 52.0427 32.5487C51.6422 32.3484 51.3307 32.0702 51.1081 31.7142C50.8912 31.3582 50.7827 30.9548 50.7827 30.5042C50.7827 30.0592 50.8912 29.6614 51.1081 29.3109C51.3251 28.9549 51.6227 28.6767 52.001 28.4764C52.3849 28.2762 52.8132 28.176 53.2861 28.176C53.7256 28.176 54.1262 28.2678 54.4878 28.4514C54.8549 28.6294 55.147 28.8937 55.364 29.2442C55.5809 29.5891 55.6894 30.0007 55.6894 30.4792L52.46 31.0967C52.6324 31.4583 52.9746 31.6391 53.4864 31.6391ZM53.2945 29.3026C53.0219 29.3026 52.7993 29.3888 52.6269 29.5613C52.4544 29.7282 52.3571 29.9702 52.3348 30.2873L54.1707 29.9284C54.115 29.7393 54.0093 29.5891 53.8536 29.4778C53.6978 29.361 53.5114 29.3026 53.2945 29.3026Z" fill="white"/>
<path d="M58.565 31.1634H58.0309V32.774H56.4454V28.2511H58.0309V29.9201H58.5984L59.7082 28.2511H61.3855L59.8668 30.4208L61.4857 32.774H59.6164L58.565 31.1634Z" fill="white"/>
<path d="M67.9027 28.176C68.459 28.176 68.9013 28.3429 69.2295 28.6767C69.5633 29.0105 69.7302 29.514 69.7302 30.1871V32.774H68.1447V30.4458C68.1447 30.1287 68.0835 29.895 67.9611 29.7448C67.8443 29.5946 67.6774 29.5195 67.4604 29.5195C67.2212 29.5195 67.0293 29.603 66.8846 29.7699C66.74 29.9368 66.6677 30.1899 66.6677 30.5292V32.774H65.0822V30.4458C65.0822 29.8283 64.8541 29.5195 64.3979 29.5195C64.1531 29.5195 63.9584 29.603 63.8138 29.7699C63.6691 29.9368 63.5968 30.1899 63.5968 30.5292V32.774H62.0113V28.2511H63.5217V28.7268C63.6886 28.5432 63.8861 28.4069 64.1142 28.3179C64.3478 28.2233 64.601 28.176 64.8736 28.176C65.1907 28.176 65.4744 28.2344 65.7247 28.3513C65.9751 28.4681 66.1781 28.6461 66.3339 28.8853C66.5119 28.6572 66.7372 28.482 67.0098 28.3596C67.2824 28.2372 67.58 28.176 67.9027 28.176Z" fill="white"/>
<path d="M70.6902 28.2511H72.2673V29.9284H73.8946V28.2511H75.48V32.774H73.8946V31.1885H72.2673V32.774H70.6902V28.2511Z" fill="white"/>
<path d="M78.7024 32.9075C77.2059 32.9075 76.4576 32.265 76.4576 30.9799V28.2511H78.0348V29.6864C78.1516 29.6085 78.3074 29.5446 78.5021 29.4945C78.7024 29.4444 78.9304 29.4194 79.1863 29.4194C79.7427 29.4194 80.1794 29.5613 80.4965 29.845C80.8136 30.1231 80.9721 30.5376 80.9721 31.0883C80.9721 31.6836 80.7663 32.137 80.3546 32.4485C79.9485 32.7545 79.3978 32.9075 78.7024 32.9075ZM81.3476 28.2511H82.9331V32.774H81.3476V28.2511ZM78.7024 31.8227C78.9193 31.8227 79.0834 31.7587 79.1947 31.6308C79.306 31.5028 79.3616 31.3331 79.3616 31.1217C79.3616 30.9159 79.306 30.7546 79.1947 30.6377C79.0834 30.5209 78.9221 30.4625 78.7107 30.4625C78.5605 30.4625 78.427 30.4903 78.3102 30.5459C78.1933 30.6016 78.1015 30.6767 78.0348 30.7712V31.1217C78.0348 31.3387 78.0904 31.5111 78.2017 31.6391C78.3129 31.7615 78.4798 31.8227 78.7024 31.8227Z" fill="white"/>
<path d="M86.3927 31.6391C86.6096 31.6391 86.796 31.6085 86.9518 31.5473C87.1131 31.4861 87.2744 31.386 87.4358 31.2469L88.2619 32.1147C87.8335 32.6043 87.1938 32.8491 86.3426 32.8491C85.8141 32.8491 85.3496 32.7489 84.949 32.5487C84.5485 32.3484 84.237 32.0702 84.0144 31.7142C83.7975 31.3582 83.689 30.9548 83.689 30.5042C83.689 30.0592 83.7975 29.6614 84.0144 29.3109C84.2314 28.9549 84.529 28.6767 84.9073 28.4764C85.2912 28.2762 85.7195 28.176 86.1924 28.176C86.6319 28.176 87.0324 28.2678 87.394 28.4514C87.7612 28.6294 88.0533 28.8937 88.2702 29.2442C88.4872 29.5891 88.5957 30.0007 88.5957 30.4792L85.3663 31.0967C85.5387 31.4583 85.8809 31.6391 86.3927 31.6391ZM86.2008 29.3026C85.9282 29.3026 85.7056 29.3888 85.5332 29.5613C85.3607 29.7282 85.2634 29.9702 85.2411 30.2873L87.077 29.9284C87.0213 29.7393 86.9156 29.5891 86.7598 29.4778C86.6041 29.361 86.4177 29.3026 86.2008 29.3026Z" fill="white"/>
<path d="M94.05 32.8491C93.5493 32.8491 93.1014 32.7489 92.7065 32.5487C92.3115 32.3484 92.0027 32.0702 91.7802 31.7142C91.5632 31.3582 91.4547 30.9548 91.4547 30.5042C91.4547 30.0536 91.5632 29.6531 91.7802 29.3026C92.0027 28.9465 92.3115 28.6712 92.7065 28.4764C93.1014 28.2762 93.5493 28.176 94.05 28.176C94.5618 28.176 95.004 28.2873 95.3768 28.5098C95.7495 28.7268 96.0137 29.03 96.1695 29.4194L94.9428 30.0453C94.737 29.6391 94.4366 29.4361 94.0416 29.4361C93.7579 29.4361 93.5215 29.5307 93.3323 29.7198C93.1487 29.909 93.0569 30.1704 93.0569 30.5042C93.0569 30.8436 93.1487 31.1106 93.3323 31.3053C93.5215 31.4945 93.7579 31.589 94.0416 31.589C94.4366 31.589 94.737 31.386 94.9428 30.9799L96.1695 31.6057C96.0137 31.9951 95.7495 32.3011 95.3768 32.5236C95.004 32.7406 94.5618 32.8491 94.05 32.8491Z" fill="white"/>
<path d="M101.489 28.2511V32.774H99.9786V32.2983C99.8117 32.4764 99.6115 32.6127 99.3778 32.7072C99.1497 32.8018 98.9049 32.8491 98.6435 32.8491C98.0538 32.8491 97.5837 32.6766 97.2332 32.3317C96.8883 31.9868 96.7158 31.4694 96.7158 30.7796V28.2511H98.3013V30.5209C98.3013 31.1718 98.5545 31.4972 99.0607 31.4972C99.3111 31.4972 99.5141 31.411 99.6699 31.2386C99.8256 31.0605 99.9035 30.7907 99.9035 30.4291V28.2511H101.489Z" fill="white"/>
<path d="M104.823 32.8491C104.322 32.8491 103.875 32.7489 103.48 32.5487C103.085 32.3484 102.776 32.0702 102.553 31.7142C102.336 31.3582 102.228 30.9548 102.228 30.5042C102.228 30.0536 102.336 29.6531 102.553 29.3026C102.776 28.9465 103.085 28.6712 103.48 28.4764C103.875 28.2762 104.322 28.176 104.823 28.176C105.335 28.176 105.777 28.2873 106.15 28.5098C106.523 28.7268 106.787 29.03 106.943 29.4194L105.716 30.0453C105.51 29.6391 105.21 29.4361 104.815 29.4361C104.531 29.4361 104.295 29.5307 104.105 29.7198C103.922 29.909 103.83 30.1704 103.83 30.5042C103.83 30.8436 103.922 31.1106 104.105 31.3053C104.295 31.4945 104.531 31.589 104.815 31.589C105.21 31.589 105.51 31.386 105.716 30.9799L106.943 31.6057C106.787 31.9951 106.523 32.3011 106.15 32.5236C105.777 32.7406 105.335 32.8491 104.823 32.8491Z" fill="white"/>
<path d="M113.497 28.176C114.054 28.176 114.496 28.3429 114.824 28.6767C115.158 29.0105 115.325 29.514 115.325 30.1871V32.774H113.739V30.4458C113.739 30.1287 113.678 29.895 113.556 29.7448C113.439 29.5946 113.272 29.5195 113.055 29.5195C112.816 29.5195 112.624 29.603 112.479 29.7699C112.335 29.9368 112.262 30.1899 112.262 30.5292V32.774H110.677V30.4458C110.677 29.8283 110.449 29.5195 109.992 29.5195C109.748 29.5195 109.553 29.603 109.408 29.7699C109.264 29.9368 109.191 30.1899 109.191 30.5292V32.774H107.606V28.2511H109.116V28.7268C109.283 28.5432 109.481 28.4069 109.709 28.3179C109.942 28.2233 110.195 28.176 110.468 28.176C110.785 28.176 111.069 28.2344 111.319 28.3513C111.57 28.4681 111.773 28.6461 111.928 28.8853C112.106 28.6572 112.332 28.482 112.604 28.3596C112.877 28.2372 113.175 28.176 113.497 28.176Z" fill="white"/>
<path d="M118.68 31.6391C118.897 31.6391 119.083 31.6085 119.239 31.5473C119.4 31.4861 119.561 31.386 119.723 31.2469L120.549 32.1147C120.12 32.6043 119.481 32.8491 118.63 32.8491C118.101 32.8491 117.637 32.7489 117.236 32.5487C116.835 32.3484 116.524 32.0702 116.301 31.7142C116.084 31.3582 115.976 30.9548 115.976 30.5042C115.976 30.0592 116.084 29.6614 116.301 29.3109C116.518 28.9549 116.816 28.6767 117.194 28.4764C117.578 28.2762 118.006 28.176 118.479 28.176C118.919 28.176 119.319 28.2678 119.681 28.4514C120.048 28.6294 120.34 28.8937 120.557 29.2442C120.774 29.5891 120.883 30.0007 120.883 30.4792L117.653 31.0967C117.826 31.4583 118.168 31.6391 118.68 31.6391ZM118.488 29.3026C118.215 29.3026 117.993 29.3888 117.82 29.5613C117.648 29.7282 117.55 29.9702 117.528 30.2873L119.364 29.9284C119.308 29.7393 119.203 29.5891 119.047 29.4778C118.891 29.361 118.705 29.3026 118.488 29.3026Z" fill="white"/>
<path d="M126.028 32.774V30.3957L124.868 32.3734H124.192L123.066 30.3624V32.774H121.639V28.2511H123.308L124.568 30.6127L125.953 28.2511H127.447L127.455 32.774H126.028Z" fill="white"/>
<path d="M130.678 32.9075C129.181 32.9075 128.433 32.265 128.433 30.9799V28.2511H130.01V29.6864C130.127 29.6085 130.283 29.5446 130.477 29.4945C130.678 29.4444 130.906 29.4194 131.162 29.4194C131.718 29.4194 132.155 29.5613 132.472 29.845C132.789 30.1231 132.947 30.5376 132.947 31.0883C132.947 31.6836 132.742 32.137 132.33 32.4485C131.924 32.7545 131.373 32.9075 130.678 32.9075ZM133.323 28.2511H134.908V32.774H133.323V28.2511ZM130.678 31.8227C130.895 31.8227 131.059 31.7587 131.17 31.6308C131.281 31.5028 131.337 31.3331 131.337 31.1217C131.337 30.9159 131.281 30.7546 131.17 30.6377C131.059 30.5209 130.897 30.4625 130.686 30.4625C130.536 30.4625 130.402 30.4903 130.285 30.5459C130.169 30.6016 130.077 30.6767 130.01 30.7712V31.1217C130.01 31.3387 130.066 31.5111 130.177 31.6391C130.288 31.7615 130.455 31.8227 130.678 31.8227Z" fill="white"/>
<path d="M8.88486 25.0037L13.5712 14.21H15.1434V17.2637L11.8176 25.0037H14.2968V23.6129C14.2968 23.2743 14.8612 23.2501 15.1434 23.2803V27.5434C14.3694 27.5434 14.2565 27.2814 14.2968 27.1503V25.941H11.3641L4.1078 42.1467H3.83569L5.68 36.5533C5.68 36.5533 4.04734 35.9184 4.59156 34.5578C5.13578 33.1973 8.40111 25.941 8.40111 25.941H4.59156V25.0037H8.88486Z" fill="#FF9900"/>
<path d="M21.0996 25.0037L16.4133 14.21H14.8411V17.2637L18.1669 25.0037H15.6876V23.6129C15.6876 23.2743 15.1233 23.2501 14.8411 23.2803V27.5434C15.6151 27.5434 15.7279 27.2814 15.6876 27.1503V25.941H18.6204L25.8767 42.1467H26.1488L24.3045 36.5533C24.3045 36.5533 25.9371 35.9184 25.3929 34.5578C24.8487 33.1973 21.5834 25.941 21.5834 25.941H25.3929V25.0037H21.0996Z" fill="#FF9900"/>
<path fill-rule="evenodd" clip-rule="evenodd" d="M15.0227 12.638C16.7927 12.638 18.2275 11.2032 18.2275 9.43318C18.2275 7.66318 16.7927 6.22832 15.0227 6.22832C13.2527 6.22832 11.8178 7.66318 11.8178 9.43318C11.8178 11.2032 13.2527 12.638 15.0227 12.638ZM15.0227 14.3916C17.7612 14.3916 19.9811 12.1717 19.9811 9.43318C19.9811 6.69469 17.7612 4.47471 15.0227 4.47471C12.2842 4.47471 10.0642 6.69469 10.0642 9.43318C10.0642 12.1717 12.2842 14.3916 15.0227 14.3916Z" fill="white"/>
<path d="M14.1156 0H15.9297V4.77706H14.1156V0Z" fill="white"/>
</g>
<defs>
<filter id="filter0_d_370875_3471" x="0" y="0" width="139" height="50" filterUnits="userSpaceOnUse" color-interpolation-filters="sRGB">
<feFlood flood-opacity="0" result="BackgroundImageFix"/>
<feColorMatrix in="SourceAlpha" type="matrix" values="0 0 0 0 0 0 0 0 0 0 0 0 0 0 0 0 0 0 127 0" result="hardAlpha"/>
<feOffset dy="4"/>
<feGaussianBlur stdDeviation="2"/>
<feComposite in2="hardAlpha" operator="out"/>
<feColorMatrix type="matrix" values="0 0 0 0 0 0 0 0 0 0 0 0 0 0 0 0 0 0 0.25 0"/>
<feBlend mode="normal" in2="BackgroundImageFix" result="effect1_dropShadow_370875_3471"/>
<feBlend mode="normal" in="SourceGraphic" in2="effect1_dropShadow_370875_3471" result="shape"/>
</filter>
<clipPath id="clip0_370875_3471">
<rect width="131" height="42" fill="white" transform="translate(4)"/>
</clipPath>
</defs>
</svg>
