<svg width="150" height="48" viewBox="0 0 150 48" fill="none" xmlns="http://www.w3.org/2000/svg">
<g clip-path="url(#clip0_370875_3277)">
<path d="M46.6703 24.3561C45.9315 24.7802 45.0354 25.1154 43.982 25.3616C42.9286 25.6079 41.8341 25.731 40.6986 25.731C39.1663 25.731 37.8598 25.5463 36.779 25.1769C35.7119 24.8075 34.9048 24.2945 34.3575 23.6378C33.824 22.9811 33.5572 22.2219 33.5572 21.36C33.5572 20.6075 33.7624 19.944 34.1728 19.3694C34.5833 18.7948 35.151 18.3502 35.8761 18.0355C35.3152 17.7482 34.8842 17.3515 34.5833 16.8453C34.296 16.3254 34.1523 15.7576 34.1523 15.142C34.1523 14.3485 34.3986 13.6234 34.8911 12.9667C35.3973 12.3101 36.1634 11.7833 37.1895 11.3866C38.2155 10.9899 39.481 10.7915 40.9859 10.7915C41.9299 10.7915 42.8602 10.8804 43.7768 11.0583C44.6934 11.2361 45.5006 11.4755 46.1983 11.7765L45.0902 14.8137C43.8178 14.2527 42.5045 13.9723 41.1501 13.9723C40.1787 13.9723 39.4536 14.1023 38.9748 14.3622C38.496 14.6084 38.2566 14.9573 38.2566 15.4088C38.2566 16.2296 38.8517 16.6401 40.0419 16.6401H44.1051V19.7388H39.7751C39.0774 19.7388 38.5507 19.8551 38.195 20.0876C37.8393 20.3065 37.6615 20.6349 37.6615 21.0727C37.6615 21.5378 37.9214 21.9004 38.4413 22.1603C38.9611 22.4202 39.7683 22.5502 40.8628 22.5502C41.6426 22.5502 42.4429 22.4476 43.2638 22.2424C44.0983 22.0235 44.8234 21.7293 45.439 21.36L46.6703 24.3561Z" fill="#333333"/>
<path d="M57.1293 19.6157C58.4016 20.0398 59.0378 20.9153 59.0378 22.2424C59.0378 23.2411 58.6479 24.0277 57.8681 24.6023C57.0882 25.1632 55.939 25.4437 54.4205 25.4437H48.1615V14.3212H54.1332C55.5833 14.3212 56.7052 14.5742 57.4987 15.0804C58.3058 15.5866 58.7094 16.298 58.7094 17.2147C58.7094 17.7482 58.5726 18.2202 58.299 18.6306C58.0254 19.0411 57.6355 19.3694 57.1293 19.6157ZM51.6501 18.7948H53.7843C54.6872 18.7948 55.1387 18.4596 55.1387 17.7893C55.1387 17.1463 54.6872 16.8248 53.7843 16.8248H51.6501V18.7948ZM54.0716 22.9196C55.0156 22.9196 55.4876 22.5776 55.4876 21.8935C55.4876 21.2095 55.0293 20.8675 54.1127 20.8675H51.6501V22.9196H54.0716Z" fill="#333333"/>
<path d="M66.2197 21.4831H64.9064V25.4437H61.0073V14.3212H64.9064V18.4254H66.3018L69.0312 14.3212H73.156L69.4211 19.6567L73.4022 25.4437H68.8054L66.2197 21.4831Z" fill="#333333"/>
<path d="M86.0227 14.3212V25.4437H82.1236V17.4199H79.3122L79.2301 19.1231C79.1754 20.5733 79.0317 21.7704 78.7991 22.7144C78.5666 23.6583 78.1835 24.3971 77.65 24.9307C77.1164 25.4505 76.3845 25.7105 75.4542 25.7105C74.9753 25.7105 74.346 25.6216 73.5662 25.4437L73.7304 22.2629C73.9766 22.2903 74.1408 22.3039 74.2229 22.3039C74.647 22.3039 74.9685 22.1671 75.1874 21.8935C75.4063 21.6199 75.5568 21.2574 75.6389 20.8059C75.721 20.3407 75.7757 19.7251 75.803 18.959L75.9672 14.3212H86.0227Z" fill="#333333"/>
<path d="M100.094 14.3212V25.4437H96.3795V24.274C95.9691 24.7118 95.4766 25.047 94.902 25.2795C94.3411 25.5121 93.7391 25.6284 93.0961 25.6284C91.6459 25.6284 90.4899 25.2043 89.628 24.3561C88.7798 23.5079 88.3557 22.2355 88.3557 20.5391V14.3212H92.2547V19.9029C92.2547 21.5036 92.8772 22.3039 94.1222 22.3039C94.7378 22.3039 95.2371 22.0919 95.6202 21.6678C96.0033 21.23 96.1948 20.5665 96.1948 19.6772V14.3212H100.094Z" fill="#333333"/>
<path d="M114.552 14.3212V23.4121C114.552 25.4779 113.991 27.0238 112.869 28.0499C111.748 29.0897 110.133 29.6095 108.026 29.6095C106.932 29.6095 105.906 29.4864 104.948 29.2401C103.99 28.9939 103.176 28.6313 102.506 28.1525L103.922 25.4232C104.374 25.7926 104.941 26.0799 105.625 26.2851C106.323 26.504 107.007 26.6134 107.677 26.6134C108.704 26.6134 109.456 26.3877 109.935 25.9362C110.414 25.4847 110.653 24.8144 110.653 23.9251V23.5557C109.901 24.4313 108.799 24.8691 107.349 24.8691C106.364 24.8691 105.454 24.6502 104.62 24.2124C103.785 23.761 103.122 23.1316 102.629 22.3245C102.137 21.5036 101.89 20.5596 101.89 19.4925C101.89 18.4391 102.137 17.5088 102.629 16.7016C103.122 15.8808 103.785 15.2515 104.62 14.8137C105.454 14.3622 106.364 14.1365 107.349 14.1365C108.936 14.1365 110.099 14.6495 110.838 15.6756V14.3212H114.552ZM108.273 21.7704C108.97 21.7704 109.545 21.5583 109.996 21.1342C110.462 20.7101 110.694 20.1629 110.694 19.4925C110.694 18.8222 110.468 18.2818 110.017 17.8713C109.565 17.4472 108.984 17.2352 108.273 17.2352C107.561 17.2352 106.973 17.4472 106.508 17.8713C106.056 18.2818 105.831 18.8222 105.831 19.4925C105.831 20.1629 106.063 20.7101 106.528 21.1342C106.993 21.5583 107.575 21.7704 108.273 21.7704Z" fill="#333333"/>
<path d="M39.8833 30.8791V37.5762H38.0081V32.3812H35.4632V37.5762H33.5975V30.8791H39.8833Z" fill="#333333"/>
<path d="M43.9843 32.3046C44.5519 32.3046 45.0462 32.413 45.4672 32.6299C45.8882 32.8468 46.2103 33.1593 46.4335 33.5675C46.6631 33.9693 46.7779 34.4413 46.7779 34.9835C46.7779 35.5193 46.6727 35.9912 46.4622 36.3995C46.2517 36.8013 45.9551 37.1138 45.5724 37.3371C45.1898 37.5539 44.7465 37.6623 44.2426 37.6623C43.6494 37.6623 43.1838 37.4806 42.8457 37.117V39.4323H41.0279V35.0026C41.0279 34.4668 41.1491 33.9949 41.3915 33.5866C41.6339 33.1784 41.9783 32.8627 42.4248 32.6395C42.8713 32.4162 43.3911 32.3046 43.9843 32.3046ZM43.8982 36.2177C44.2234 36.2177 44.485 36.1061 44.6827 35.8828C44.8868 35.6532 44.9888 35.3534 44.9888 34.9835C44.9888 34.6135 44.8868 34.317 44.6827 34.0937C44.485 33.8641 44.2234 33.7493 43.8982 33.7493C43.5729 33.7493 43.3114 33.8641 43.1136 34.0937C42.9159 34.317 42.817 34.6135 42.817 34.9835C42.817 35.3598 42.9127 35.6596 43.1041 35.8828C43.3018 36.1061 43.5665 36.2177 43.8982 36.2177Z" fill="#333333"/>
<path d="M50.211 37.6623C49.6561 37.6623 49.1554 37.5475 48.7089 37.3179C48.2624 37.0883 47.9116 36.7694 47.6565 36.3612C47.4077 35.953 47.2834 35.4906 47.2834 34.9739C47.2834 34.4637 47.4077 34.0044 47.6565 33.5962C47.9116 33.188 48.2592 32.8723 48.6993 32.649C49.1458 32.4194 49.6497 32.3046 50.211 32.3046C50.7723 32.3046 51.2761 32.4194 51.7226 32.649C52.1691 32.8723 52.5167 33.188 52.7655 33.5962C53.0142 33.998 53.1386 34.4573 53.1386 34.9739C53.1386 35.4906 53.0142 35.953 52.7655 36.3612C52.5167 36.7694 52.1691 37.0883 51.7226 37.3179C51.2761 37.5475 50.7723 37.6623 50.211 37.6623ZM50.211 36.2177C50.5299 36.2177 50.7914 36.1092 50.9955 35.8924C51.1996 35.6691 51.3017 35.363 51.3017 34.9739C51.3017 34.5912 51.1996 34.2914 50.9955 34.0746C50.7914 33.8577 50.5299 33.7493 50.211 33.7493C49.8921 33.7493 49.6306 33.8577 49.4265 34.0746C49.2223 34.2914 49.1203 34.5912 49.1203 34.9739C49.1203 35.363 49.2223 35.6691 49.4265 35.8924C49.6306 36.1092 49.8921 36.2177 50.211 36.2177Z" fill="#333333"/>
<path d="M56.737 36.2751C56.9857 36.2751 57.1994 36.24 57.378 36.1698C57.563 36.0997 57.7479 35.9849 57.9329 35.8254L58.8801 36.8204C58.3889 37.3817 57.6554 37.6623 56.6796 37.6623C56.0736 37.6623 55.541 37.5475 55.0818 37.3179C54.6226 37.0883 54.2654 36.7694 54.0103 36.3612C53.7615 35.953 53.6371 35.4906 53.6371 34.9739C53.6371 34.4637 53.7615 34.0076 54.0103 33.6058C54.259 33.1976 54.6003 32.8787 55.034 32.649C55.4741 32.4194 55.9652 32.3046 56.5074 32.3046C57.0112 32.3046 57.4705 32.4099 57.8851 32.6203C58.306 32.8244 58.6409 33.1274 58.8896 33.5292C59.1384 33.9247 59.2628 34.3967 59.2628 34.9452L55.5602 35.6532C55.7579 36.0678 56.1502 36.2751 56.737 36.2751ZM56.5169 33.5962C56.2044 33.5962 55.9493 33.6951 55.7515 33.8928C55.5538 34.0841 55.4422 34.3616 55.4167 34.7252L57.5215 34.3138C57.4577 34.0969 57.3365 33.9247 57.1579 33.7971C56.9793 33.6632 56.7657 33.5962 56.5169 33.5962Z" fill="#333333"/>
<path d="M62.5597 35.7297H61.9474V37.5762H60.1296V32.3907H61.9474V34.3042H62.598L63.8704 32.3907H65.7935L64.0522 34.8782L65.9083 37.5762H63.7652L62.5597 35.7297Z" fill="#333333"/>
<path d="M73.2655 32.3046C73.9033 32.3046 74.4104 32.496 74.7867 32.8787C75.1694 33.2614 75.3607 33.8386 75.3607 34.6104V37.5762H73.543V34.9069C73.543 34.5434 73.4728 34.2755 73.3325 34.1033C73.1985 33.9311 73.0072 33.845 72.7584 33.845C72.4842 33.845 72.2641 33.9406 72.0983 34.132C71.9324 34.3233 71.8495 34.6135 71.8495 35.0026V37.5762H70.0317V34.9069C70.0317 34.199 69.7702 33.845 69.2472 33.845C68.9666 33.845 68.7433 33.9406 68.5775 34.132C68.4117 34.3233 68.3287 34.6135 68.3287 35.0026V37.5762H66.5109V32.3907H68.2426V32.9361C68.434 32.7256 68.6604 32.5693 68.9219 32.4673C69.1898 32.3588 69.48 32.3046 69.7925 32.3046C70.1561 32.3046 70.4814 32.3716 70.7684 32.5055C71.0554 32.6395 71.2882 32.8436 71.4668 33.1178C71.6709 32.8563 71.9293 32.6554 72.2418 32.5151C72.5543 32.3748 72.8956 32.3046 73.2655 32.3046Z" fill="#333333"/>
<path d="M76.4614 32.3907H78.2696V34.3138H80.1352V32.3907H81.953V37.5762H80.1352V35.7584H78.2696V37.5762H76.4614V32.3907Z" fill="#333333"/>
<path d="M85.6475 37.7293C83.9317 37.7293 83.0738 36.9926 83.0738 35.5193V32.3907H84.8821V34.0363C85.016 33.947 85.1946 33.8737 85.4179 33.8163C85.6475 33.7589 85.909 33.7302 86.2024 33.7302C86.8402 33.7302 87.3409 33.8928 87.7045 34.2181C88.068 34.537 88.2498 35.0122 88.2498 35.6436C88.2498 36.3261 88.0138 36.8459 87.5418 37.2031C87.0762 37.5539 86.4447 37.7293 85.6475 37.7293ZM88.6803 32.3907H90.4981V37.5762H88.6803V32.3907ZM85.6475 36.4856C85.8962 36.4856 86.0844 36.4122 86.2119 36.2655C86.3395 36.1188 86.4033 35.9243 86.4033 35.6819C86.4033 35.4459 86.3395 35.2609 86.2119 35.127C86.0844 34.993 85.8994 34.9261 85.657 34.9261C85.4848 34.9261 85.3317 34.958 85.1978 35.0217C85.0639 35.0855 84.9586 35.1716 84.8821 35.2801V35.6819C84.8821 35.9307 84.9459 36.1284 85.0734 36.2751C85.201 36.4154 85.3923 36.4856 85.6475 36.4856Z" fill="#333333"/>
<path d="M94.4645 36.2751C94.7133 36.2751 94.927 36.24 95.1056 36.1698C95.2905 36.0997 95.4755 35.9849 95.6605 35.8254L96.6076 36.8204C96.1165 37.3817 95.383 37.6623 94.4071 37.6623C93.8012 37.6623 93.2686 37.5475 92.8094 37.3179C92.3502 37.0883 91.993 36.7694 91.7378 36.3612C91.4891 35.953 91.3647 35.4906 91.3647 34.9739C91.3647 34.4637 91.4891 34.0076 91.7378 33.6058C91.9866 33.1976 92.3278 32.8787 92.7616 32.649C93.2017 32.4194 93.6928 32.3046 94.2349 32.3046C94.7388 32.3046 95.198 32.4099 95.6126 32.6203C96.0336 32.8244 96.3685 33.1274 96.6172 33.5292C96.866 33.9247 96.9903 34.3967 96.9903 34.9452L93.2878 35.6532C93.4855 36.0678 93.8777 36.2751 94.4645 36.2751ZM94.2445 33.5962C93.932 33.5962 93.6768 33.6951 93.4791 33.8928C93.2814 34.0841 93.1698 34.3616 93.1442 34.7252L95.2491 34.3138C95.1853 34.0969 95.0641 33.9247 94.8855 33.7971C94.7069 33.6632 94.4932 33.5962 94.2445 33.5962Z" fill="#333333"/>
<path d="M103.244 37.6623C102.67 37.6623 102.156 37.5475 101.703 37.3179C101.251 37.0883 100.897 36.7694 100.641 36.3612C100.393 35.953 100.268 35.4906 100.268 34.9739C100.268 34.4573 100.393 33.998 100.641 33.5962C100.897 33.188 101.251 32.8723 101.703 32.649C102.156 32.4194 102.67 32.3046 103.244 32.3046C103.831 32.3046 104.338 32.4322 104.765 32.6873C105.192 32.9361 105.495 33.2837 105.674 33.7302L104.267 34.4477C104.031 33.9821 103.687 33.7493 103.234 33.7493C102.909 33.7493 102.638 33.8577 102.421 34.0746C102.21 34.2914 102.105 34.5912 102.105 34.9739C102.105 35.363 102.21 35.6691 102.421 35.8924C102.638 36.1092 102.909 36.2177 103.234 36.2177C103.687 36.2177 104.031 35.9849 104.267 35.5193L105.674 36.2368C105.495 36.6833 105.192 37.0341 104.765 37.2892C104.338 37.538 103.831 37.6623 103.244 37.6623Z" fill="#333333"/>
<path d="M111.773 32.3907V37.5762H110.041V37.0309C109.85 37.235 109.62 37.3913 109.352 37.4997C109.091 37.6081 108.81 37.6623 108.51 37.6623C107.834 37.6623 107.295 37.4646 106.893 37.0692C106.498 36.6737 106.3 36.0805 106.3 35.2896V32.3907H108.118V34.993C108.118 35.7393 108.408 36.1124 108.989 36.1124C109.276 36.1124 109.508 36.0136 109.687 35.8158C109.866 35.6117 109.955 35.3024 109.955 34.8878V32.3907H111.773Z" fill="#333333"/>
<path d="M115.595 37.6623C115.021 37.6623 114.508 37.5475 114.055 37.3179C113.602 37.0883 113.248 36.7694 112.993 36.3612C112.744 35.953 112.62 35.4906 112.62 34.9739C112.62 34.4573 112.744 33.998 112.993 33.5962C113.248 33.188 113.602 32.8723 114.055 32.649C114.508 32.4194 115.021 32.3046 115.595 32.3046C116.182 32.3046 116.689 32.4322 117.117 32.6873C117.544 32.9361 117.847 33.2837 118.025 33.7302L116.619 34.4477C116.383 33.9821 116.039 33.7493 115.586 33.7493C115.26 33.7493 114.989 33.8577 114.773 34.0746C114.562 34.2914 114.457 34.5912 114.457 34.9739C114.457 35.363 114.562 35.6691 114.773 35.8924C114.989 36.1092 115.26 36.2177 115.586 36.2177C116.039 36.2177 116.383 35.9849 116.619 35.5193L118.025 36.2368C117.847 36.6833 117.544 37.0341 117.117 37.2892C116.689 37.538 116.182 37.6623 115.595 37.6623Z" fill="#333333"/>
<path d="M125.54 32.3046C126.178 32.3046 126.685 32.496 127.062 32.8787C127.444 33.2614 127.636 33.8386 127.636 34.6104V37.5762H125.818V34.9069C125.818 34.5434 125.748 34.2755 125.607 34.1033C125.473 33.9311 125.282 33.845 125.033 33.845C124.759 33.845 124.539 33.9406 124.373 34.132C124.207 34.3233 124.124 34.6135 124.124 35.0026V37.5762H122.307V34.9069C122.307 34.199 122.045 33.845 121.522 33.845C121.241 33.845 121.018 33.9406 120.852 34.132C120.686 34.3233 120.604 34.6135 120.604 35.0026V37.5762H118.786V32.3907H120.517V32.9361C120.709 32.7256 120.935 32.5693 121.197 32.4673C121.465 32.3588 121.755 32.3046 122.067 32.3046C122.431 32.3046 122.756 32.3716 123.043 32.5055C123.33 32.6395 123.563 32.8436 123.742 33.1178C123.946 32.8563 124.204 32.6554 124.517 32.5151C124.829 32.3748 125.17 32.3046 125.54 32.3046Z" fill="#333333"/>
<path d="M131.482 36.2751C131.731 36.2751 131.944 36.24 132.123 36.1698C132.308 36.0997 132.493 35.9849 132.678 35.8254L133.625 36.8204C133.134 37.3817 132.401 37.6623 131.425 37.6623C130.819 37.6623 130.286 37.5475 129.827 37.3179C129.368 37.0883 129.01 36.7694 128.755 36.3612C128.507 35.953 128.382 35.4906 128.382 34.9739C128.382 34.4637 128.507 34.0076 128.755 33.6058C129.004 33.1976 129.345 32.8787 129.779 32.649C130.219 32.4194 130.71 32.3046 131.252 32.3046C131.756 32.3046 132.216 32.4099 132.63 32.6203C133.051 32.8244 133.386 33.1274 133.635 33.5292C133.883 33.9247 134.008 34.3967 134.008 34.9452L130.305 35.6532C130.503 36.0678 130.895 36.2751 131.482 36.2751ZM131.262 33.5962C130.949 33.5962 130.694 33.6951 130.497 33.8928C130.299 34.0841 130.187 34.3616 130.162 34.7252L132.267 34.3138C132.203 34.0969 132.082 33.9247 131.903 33.7971C131.724 33.6632 131.511 33.5962 131.262 33.5962Z" fill="#333333"/>
<path d="M139.907 37.5762V34.8495L138.577 37.117H137.802L136.511 34.8113V37.5762H134.875V32.3907H136.788L138.233 35.0983L139.821 32.3907H141.534L141.543 37.5762H139.907Z" fill="#333333"/>
<path d="M145.238 37.7293C143.522 37.7293 142.664 36.9926 142.664 35.5193V32.3907H144.473V34.0363C144.607 33.947 144.785 33.8737 145.008 33.8163C145.238 33.7589 145.499 33.7302 145.793 33.7302C146.431 33.7302 146.931 33.8928 147.295 34.2181C147.659 34.537 147.84 35.0122 147.84 35.6436C147.84 36.3261 147.604 36.8459 147.132 37.2031C146.667 37.5539 146.035 37.7293 145.238 37.7293ZM148.271 32.3907H150.089V37.5762H148.271V32.3907ZM145.238 36.4856C145.487 36.4856 145.675 36.4122 145.802 36.2655C145.93 36.1188 145.994 35.9243 145.994 35.6819C145.994 35.4459 145.93 35.2609 145.802 35.127C145.675 34.993 145.49 34.9261 145.248 34.9261C145.075 34.9261 144.922 34.958 144.788 35.0217C144.654 35.0855 144.549 35.1716 144.473 35.2801V35.6819C144.473 35.9307 144.536 36.1284 144.664 36.2751C144.792 36.4154 144.983 36.4856 145.238 36.4856Z" fill="#333333"/>
<path d="M5.6006 28.6675L10.9736 16.2923H12.7761V19.7934L8.96304 28.6675H11.8055V27.073C11.8055 26.6847 12.4526 26.657 12.7761 26.6916V31.5793C11.8887 31.5793 11.7593 31.2789 11.8055 31.1287V29.7421H8.44308L0.123625 48.3222H-0.188354L1.92617 41.9093C1.92617 41.9093 0.0542962 41.1814 0.678255 39.6215C1.30221 38.0616 5.04597 29.7421 5.04597 29.7421H0.678255V28.6675H5.6006Z" fill="#FF9900"/>
<path d="M19.605 28.6675L14.232 16.2923H12.4295V19.7934L16.2426 28.6675H13.4001V27.073C13.4001 26.6847 12.753 26.657 12.4295 26.6916V31.5793C13.3169 31.5793 13.4463 31.2789 13.4001 31.1287V29.7421H16.7625L25.082 48.3222H25.394L23.2794 41.9093C23.2794 41.9093 25.1513 41.1814 24.5274 39.6215C23.9034 38.0616 20.1596 29.7421 20.1596 29.7421H24.5274V28.6675H19.605Z" fill="#FF9900"/>
<path fill-rule="evenodd" clip-rule="evenodd" d="M12.6375 14.4898C14.6668 14.4898 16.3119 12.8447 16.3119 10.8154C16.3119 8.78608 14.6668 7.14098 12.6375 7.14098C10.6081 7.14098 8.96305 8.78608 8.96305 10.8154C8.96305 12.8447 10.6081 14.4898 12.6375 14.4898ZM12.6375 16.5004C15.7772 16.5004 18.3224 13.9551 18.3224 10.8154C18.3224 7.67569 15.7772 5.13045 12.6375 5.13045C9.49776 5.13045 6.95251 7.67569 6.95251 10.8154C6.95251 13.9551 9.49776 16.5004 12.6375 16.5004Z" fill="#333333"/>
<path d="M11.5975 0.000118256H13.6774V5.47709H11.5975V0.000118256Z" fill="#333333"/>
</g>
<defs>
<clipPath id="clip0_370875_3277">
<rect width="150" height="48" fill="white"/>
</clipPath>
</defs>
</svg>
